<?xml version="1.0" encoding="UTF-8"?>
<svg id="Layer_1" data-name="Layer 1" xmlns="http://www.w3.org/2000/svg" viewBox="0 0 177.69 267.2">
  <defs>
    <style>
      .cls-1 {
        fill: #197e60;
      }
    </style>
  </defs>
  <path class="cls-1" d="M157.48,152l-94.46,107.95c-1.06,1.21-2.59,1.9-4.19,1.9H12.37c-4.79,0-7.35-5.64-4.19-9.25l102.73-117.18c1.82-2.08,1.85-5.17.06-7.28L14.63,14.52c-3.07-3.62-.5-9.18,4.25-9.18h44.48c1.66,0,3.24.74,4.3,2.03l90.37,109.49c.1.12.21.24.32.36l10.96,11.15c1.93,1.96,2.14,5.05.48,7.25l-12.04,16.06c-.08.11-.17.22-.26.33Z"/>
</svg>