<?xml version="1.0" encoding="UTF-8"?>
<svg id="Layer_1" data-name="Layer 1" xmlns="http://www.w3.org/2000/svg" viewBox="0 0 1738.86 426.75">
  <defs>
    <style>
      .cls-1 {
        fill: #197e60;
      }

      .cls-2 {
        fill: #fff;
      }
    </style>
  </defs>
  <path class="cls-2" d="M198.3,346.98c-19,0-36.14-3.36-51.39-10.07-15.26-6.71-27.79-16.33-37.59-28.86-8.71-11.13-14.58-24.17-17.61-39.1-.63-3.09,1.58-6.08,4.7-6.55l40.04-5.92c2.77-.41,5.32,1.34,6.16,4.02,3.91,12.44,10.84,22.21,20.78,29.29,11.16,7.96,23.87,11.93,38.12,11.93,7.96,0,15.68-1.25,23.16-3.74,7.48-2.49,13.63-6.17,18.44-11.04,4.81-4.87,7.21-10.87,7.21-17.99,0-2.61-.39-5.14-1.16-7.57-.77-2.43-2.05-4.72-3.83-6.86-1.78-2.14-4.31-4.15-7.57-6.06-3.27-1.9-7.39-3.62-12.38-5.16l-66.62-19.59c-4.99-1.43-10.78-3.44-17.37-6.06-6.59-2.61-12.97-6.35-19.15-11.22-6.18-4.87-11.31-11.31-15.41-19.33-4.1-8.02-6.15-18.14-6.15-30.37,0-17.22,4.34-31.53,13.01-42.93,8.67-11.4,20.25-19.89,34.74-25.47,14.49-5.58,30.52-8.31,48.1-8.2,17.69.24,33.49,3.27,47.38,9.09,13.9,5.82,25.53,14.28,34.91,25.38,8.18,9.69,14.38,21.25,18.59,34.69.99,3.17-1.16,6.5-4.43,7.06l-41.28,7.02c-2.81.48-5.39-1.29-6.27-3.99-2.03-6.23-5.09-11.63-9.18-16.19-5.11-5.7-11.19-10.03-18.26-13-7.07-2.97-14.46-4.57-22.18-4.81-7.6-.24-14.76.8-21.47,3.12-5.82,2.01-10.7,4.8-14.64,8.37-5.52,5-8.69,12.47-7.95,19.88.45,4.45,2.13,8.16,5.04,11.12,3.44,3.51,7.78,6.33,13.01,8.46,5.22,2.14,10.57,3.92,16.03,5.34l44.53,12.11c6.65,1.78,14.01,4.13,22.09,7.03,8.07,2.91,15.82,6.95,23.24,12.11,7.42,5.17,13.54,11.97,18.35,20.4,4.81,8.43,7.21,19.12,7.21,32.06,0,13.78-2.88,25.8-8.64,36.07-5.76,10.27-13.51,18.77-23.24,25.47-9.74,6.71-20.75,11.73-33.05,15.05-12.29,3.33-24.97,4.99-38.03,4.99Z"/>
  <path class="cls-2" d="M527.77,224.78v111.28c0,3.08-2.5,5.57-5.57,5.57h-37.31c-3.08,0-5.57-2.5-5.57-5.57V90.69c0-3.08,2.5-5.57,5.57-5.57h37.31c3.08,0,5.57,2.5,5.57,5.57v112.71"/>
  <path class="cls-1" d="M464.14,231.78l-94.46,107.95c-1.06,1.21-2.59,1.9-4.19,1.9h-46.45c-4.79,0-7.35-5.64-4.19-9.25l102.73-117.18c1.82-2.08,1.85-5.17.06-7.28l-96.35-113.63c-3.07-3.62-.5-9.18,4.25-9.18h44.48c1.66,0,3.24.74,4.3,2.03l90.37,109.49c.1.12.21.24.32.36l10.96,11.15c1.93,1.96,2.14,5.05.48,7.25l-12.04,16.06c-.08.11-.17.22-.26.33Z"/>
  <path class="cls-2" d="M580.93,336.06V90.69c0-3.08,2.5-5.57,5.57-5.57h37.31c3.08,0,5.57,2.5,5.57,5.57v245.37c0,3.08-2.5,5.57-5.57,5.57h-37.31c-3.08,0-5.57-2.5-5.57-5.57Z"/>
  <path class="cls-2" d="M686.39,336.06V90.69c0-3.08,2.5-5.57,5.57-5.57h37.31c3.08,0,5.57,2.5,5.57,5.57v200.12c0,3.08,2.5,5.57,5.57,5.57h99.3c3.08,0,5.57,2.5,5.57,5.57v34.1c0,3.08-2.5,5.57-5.57,5.57h-147.75c-3.08,0-5.57-2.5-5.57-5.57Z"/>
  <path class="cls-2" d="M879.13,336.06V90.69c0-3.08,2.5-5.57,5.57-5.57h37.31c3.08,0,5.57,2.5,5.57,5.57v200.12c0,3.08,2.5,5.57,5.57,5.57h99.3c3.08,0,5.57,2.5,5.57,5.57v34.1c0,3.08-2.5,5.57-5.57,5.57h-147.75c-3.08,0-5.57-2.5-5.57-5.57Z"/>
  <path class="cls-2" d="M1165.22,346.98c-19,0-36.14-3.36-51.39-10.07-15.26-6.71-27.79-16.33-37.59-28.86-8.71-11.13-14.58-24.17-17.61-39.1-.63-3.09,1.58-6.08,4.7-6.55l40.04-5.92c2.77-.41,5.32,1.34,6.16,4.02,3.91,12.44,10.84,22.21,20.78,29.29,11.16,7.96,23.87,11.93,38.12,11.93,7.96,0,15.68-1.25,23.16-3.74,7.48-2.49,13.63-6.17,18.44-11.04,4.81-4.87,7.21-10.87,7.21-17.99,0-2.61-.39-5.14-1.16-7.57-.77-2.43-2.05-4.72-3.83-6.86-1.78-2.14-4.31-4.15-7.57-6.06-3.27-1.9-7.39-3.62-12.38-5.16l-66.62-19.59c-4.99-1.43-10.78-3.44-17.37-6.06-6.59-2.61-12.97-6.35-19.15-11.22-6.18-4.87-11.31-11.31-15.41-19.33-4.1-8.02-6.15-18.14-6.15-30.37,0-17.22,4.34-31.53,13.01-42.93,8.67-11.4,20.25-19.89,34.74-25.47,14.49-5.58,30.52-8.31,48.1-8.2,17.69.24,33.49,3.27,47.38,9.09,13.9,5.82,25.53,14.28,34.91,25.38,8.18,9.69,14.38,21.25,18.59,34.69.99,3.17-1.16,6.5-4.43,7.06l-41.28,7.02c-2.81.48-5.39-1.29-6.27-3.99-2.03-6.23-5.09-11.63-9.18-16.19-5.11-5.7-11.19-10.03-18.26-13-7.07-2.97-14.46-4.57-22.18-4.81-7.6-.24-14.76.8-21.47,3.12-5.82,2.01-10.7,4.8-14.64,8.37-5.52,5-8.69,12.47-7.95,19.88.45,4.45,2.13,8.16,5.04,11.12,3.44,3.51,7.78,6.33,13.01,8.46,5.22,2.14,10.57,3.92,16.03,5.34l44.53,12.11c6.65,1.78,14.01,4.13,22.09,7.03,8.07,2.91,15.82,6.95,23.24,12.11,7.42,5.17,13.54,11.97,18.35,20.4,4.81,8.43,7.21,19.12,7.21,32.06,0,13.78-2.88,25.8-8.64,36.07-5.76,10.27-13.51,18.77-23.24,25.47-9.74,6.71-20.75,11.73-33.05,15.05-12.29,3.33-24.97,4.99-38.03,4.99Z"/>
  <path class="cls-2" d="M1310.93,336.06V90.69c0-3.08,2.5-5.57,5.57-5.57h37.31c3.08,0,5.57,2.5,5.57,5.57v245.37c0,3.08-2.5,5.57-5.57,5.57h-37.31c-3.08,0-5.57-2.5-5.57-5.57Z"/>
  <path class="cls-2" d="M1522.92,346.98c-25.65,0-47.77-5.58-66.36-16.75-18.59-11.16-32.9-26.78-42.93-46.85-10.03-20.07-15.05-43.41-15.05-70.01s5.02-49.94,15.05-70.01c10.03-20.07,24.34-35.68,42.93-46.85,18.58-11.16,40.7-16.75,66.36-16.75s47.77,5.58,66.36,16.75c18.58,11.16,32.89,26.78,42.93,46.85,10.03,20.07,15.05,43.41,15.05,70.01s-5.02,49.94-15.05,70.01c-10.04,20.07-24.35,35.69-42.93,46.85-18.59,11.16-40.71,16.75-66.36,16.75ZM1522.92,301.38c16.27.24,29.81-3.27,40.61-10.51,10.81-7.24,18.91-17.51,24.32-30.82,5.4-13.3,8.11-28.86,8.11-46.67s-2.7-33.25-8.11-46.32c-5.41-13.06-13.51-23.22-24.32-30.46-10.81-7.24-24.34-10.98-40.61-11.22-16.27-.24-29.81,3.27-40.62,10.51-10.81,7.24-18.91,17.52-24.32,30.82-5.4,13.3-8.1,28.86-8.1,46.67s2.7,33.25,8.1,46.32c5.4,13.06,13.51,23.22,24.32,30.46,10.81,7.25,24.34,10.99,40.62,11.22Z"/>
</svg>